<?xml version="1.0" encoding="utf-8"?>
<svg viewBox="0 0 544 544" xmlns="http://www.w3.org/2000/svg">
  <ellipse style="fill: rgb(178, 251, 196);" cx="271.707" cy="344.611" rx="228.385" ry="212.857" transform="matrix(1, 0, -0.01914900168776512, 1, 11.671067237854004, -78.46717071533203)"/>
  <ellipse style="fill: rgb(255, 255, 255);" cx="278.148" cy="240.672" rx="200.853" ry="184.457"/>
  <ellipse style="fill: rgb(107, 214, 98);" cx="276.684" cy="219.299" rx="198.218" ry="84.616"/>
  <ellipse style="fill: rgb(107, 214, 98);" cx="280.784" cy="180.065" rx="163.376" ry="84.616"/>
  <path style="fill: rgb(188, 255, 100);" d="M 169.231 148.346 C 169.231 148.346 199.096 153.616 201.438 153.616 C 203.78 153.616 223.69 143.076 223.69 143.076 C 223.69 143.076 168.06 59.338 167.475 59.338 C 166.89 59.338 122.385 35.33 122.385 35.33"/>
  <path style="fill: rgb(52, 170, 99);" d="M 110.674 185.237 L 96.034 154.202 L 96.034 104.428 L 105.404 58.753 L 118.286 32.402 L 177.429 125.508 L 162.205 160.057"/>
  <ellipse style="fill: rgb(186, 255, 102);" cx="275.221" cy="219.884" rx="170.403" ry="88.714"/>
  <path style="fill: rgb(255, 255, 255);" d="M 59.729 387.066 L 56.801 321.481 L 69.098 303.328 L 168.646 288.689 L 244.771 291.031 L 290.446 297.473 L 314.454 341.976 L 315.04 358.372 L 293.373 399.948 L 108.917 405.218"/>
  <ellipse style="paint-order: stroke; fill-rule: nonzero; fill: rgb(183, 254, 194);" cx="277.856" cy="471.974" rx="106.868" ry="50.359"/>
  <path style="fill: rgb(188, 255, 100);" d="M 338.463 140.148 L 340.805 137.806 L 382.967 69.293 L 429.813 42.357 L 417.516 97.401 C 417.516 97.401 370.084 153.616 369.498 154.202"/>
  <path style="fill: rgb(52, 170, 99);" d="M 393.507 162.985 L 440.939 192.264 L 462.019 137.806 C 462.019 137.806 450.893 76.906 450.893 76.32 C 450.893 75.734 434.497 39.429 434.497 39.429 L 375.94 126.094"/>
  <path fill="#000000" opacity="1.000000" stroke="none" d="&#10;M66.842636,315.812378 &#10;&#9;C59.470783,325.302795 59.873833,335.815552 60.874580,346.621185 &#10;&#9;C61.810986,356.731995 62.240887,366.900909 62.543312,377.054688 &#10;&#9;C62.704880,382.479126 65.486244,385.603455 69.987900,387.801147 &#10;&#9;C81.768707,393.552582 94.290138,396.662659 107.177208,398.756775 &#10;&#9;C127.942482,402.131012 148.697556,399.067657 169.453110,399.064484 &#10;&#9;C197.950958,399.060150 226.449539,398.891022 254.946152,398.619415 &#10;&#9;C263.249268,398.540314 271.592194,399.460327 279.862976,397.791016 &#10;&#9;C284.785400,396.797485 289.348541,394.951996 293.516022,392.243622 &#10;&#9;C297.873199,399.362549 296.813782,402.487335 289.707855,404.568054 &#10;&#9;C285.863098,405.693848 281.981140,406.372040 277.927826,406.397705 &#10;&#9;C234.270599,406.674011 190.613388,406.982147 146.957367,407.405518 &#10;&#9;C138.495056,407.487549 130.178436,409.780334 120.973938,408.767670 &#10;&#9;C123.209534,413.903503 127.047638,416.481293 130.237885,419.363525 &#10;&#9;C155.312042,442.016541 183.793472,458.605774 216.449265,468.018951 &#10;&#9;C240.045929,474.820831 264.006866,477.837585 288.457764,476.647003 &#10;&#9;C327.158813,474.762573 362.937653,463.647308 395.916901,442.999115 &#10;&#9;C401.561798,439.464844 408.462402,435.990295 416.202698,437.564484 &#10;&#9;C421.710236,438.684631 427.331848,439.243866 432.981049,440.064819 &#10;&#9;C432.907166,443.139587 430.205780,443.770264 428.631622,445.265137 &#10;&#9;C421.496460,452.041077 414.228485,458.688232 405.074097,462.723694 &#10;&#9;C402.277100,463.956726 402.092194,466.506500 401.437164,468.855804 &#10;&#9;C399.348511,476.347046 398.596649,484.099396 395.206635,491.364502 &#10;&#9;C388.878845,504.925537 377.462036,513.049927 365.100830,519.489136 &#10;&#9;C335.327148,534.998840 303.065826,540.150146 269.821136,539.154236 &#10;&#9;C239.955688,538.259521 211.215790,531.953613 185.510498,516.168335 &#10;&#9;C171.001694,507.258698 158.833771,495.384583 155.298004,477.626221 &#10;&#9;C153.471176,468.450989 149.453156,461.741852 141.371353,456.548157 &#10;&#9;C121.551605,443.811066 105.668266,426.659241 90.677177,408.710907 &#10;&#9;C87.857239,405.334747 84.777855,403.244720 80.552185,402.099304 &#10;&#9;C73.009087,400.054688 65.547058,397.698456 59.256634,392.648224 &#10;&#9;C56.331154,390.299500 54.824894,387.686859 54.561817,383.813629 &#10;&#9;C53.659554,370.529938 53.137810,357.233093 52.462498,343.941284 &#10;&#9;C52.082310,336.458252 48.408062,329.588226 46.303959,322.419464 &#10;&#9;C38.296619,295.138184 35.273766,267.385284 37.591339,239.040878 &#10;&#9;C38.863319,223.484268 39.287361,207.827698 43.435234,192.632980 &#10;&#9;C45.483372,185.130096 49.720154,178.707550 53.740585,172.237137 &#10;&#9;C61.354794,159.983002 70.979729,149.376373 81.799202,139.885956 &#10;&#9;C84.057106,137.905411 84.772636,135.855423 84.791008,132.979523 &#10;&#9;C85.022087,96.807053 92.858948,62.437302 109.410866,30.160831 &#10;&#9;C112.365181,24.399864 116.718773,22.370146 123.057426,24.402084 &#10;&#9;C133.868454,27.867699 142.762070,34.669678 151.563492,41.511497 &#10;&#9;C158.123993,46.611317 164.519058,51.930298 170.859375,57.303226 &#10;&#9;C172.866913,59.004467 174.713638,58.801830 176.856308,57.969437 &#10;&#9;C188.830444,53.317688 201.175186,49.957943 213.718918,47.230129 &#10;&#9;C242.561142,40.957981 271.686127,39.356159 301.092499,41.353008 &#10;&#9;C325.644165,43.020203 349.764130,47.228249 372.647797,56.166496 &#10;&#9;C381.625732,59.673229 387.195953,58.123249 393.727722,52.033524 &#10;&#9;C403.122711,43.274399 413.863647,36.257412 425.671783,30.916035 &#10;&#9;C434.298523,27.013758 439.092926,28.736313 443.473663,37.104149 &#10;&#9;C459.067780,66.891205 465.464294,98.998375 467.767303,132.141785 &#10;&#9;C467.949585,134.765015 469.205475,135.972580 470.934509,137.317245 &#10;&#9;C485.310547,148.497253 497.297028,161.707916 505.596039,178.069839 &#10;&#9;C511.212524,189.143005 512.703735,201.287628 514.101074,213.290817 &#10;&#9;C515.735229,227.327972 516.107849,241.491150 516.452881,255.653732 &#10;&#9;C517.276733,289.472443 511.426727,321.722290 497.566345,352.768219 &#10;&#9;C487.124664,376.156647 473.107666,396.947510 456.597260,416.273254 &#10;&#9;C454.544891,418.675568 452.494476,421.079681 450.412659,423.456238 &#10;&#9;C450.236816,423.656982 449.828339,423.653931 448.784698,423.972382 &#10;&#9;C449.028931,415.042816 447.208038,406.422577 448.126068,397.663330 &#10;&#9;C448.342590,395.597565 449.612213,394.033691 450.846771,392.422699 &#10;&#9;C467.822418,370.270477 481.073608,346.116943 488.842957,319.242523 &#10;&#9;C494.030151,301.299805 496.798035,282.925812 496.975739,264.151489 &#10;&#9;C497.038055,257.564758 496.966217,251.043304 496.642029,242.958786 &#10;&#9;C490.810425,250.054794 485.305237,255.459869 479.262848,260.332062 &#10;&#9;C461.154114,274.933716 440.705078,285.227325 419.026276,293.230865 &#10;&#9;C384.887573,305.834412 349.455322,312.380524 313.285706,315.207977 &#10;&#9;C308.725311,315.564453 308.237579,317.146667 309.983948,320.817047 &#10;&#9;C313.852020,328.946777 317.160370,337.277802 318.836395,346.189728 &#10;&#9;C319.237366,348.321777 319.570587,350.402679 319.310577,352.636017 &#10;&#9;C317.093567,353.932739 314.260681,352.873047 312.619354,354.763031 &#10;&#9;C310.703827,353.909729 310.861572,352.436401 310.553619,351.182678 &#10;&#9;C306.771118,335.784058 300.257507,321.734161 290.478302,309.153473 &#10;&#9;C283.635559,300.350403 273.862640,298.752533 263.886963,297.410065 &#10;&#9;C228.539597,292.653168 193.125443,294.383789 157.663315,295.879852 &#10;&#9;C134.293777,296.865753 111.341759,300.995270 88.167236,303.383057 &#10;&#9;C79.468422,304.279327 71.517471,307.005676 66.842636,315.812378 &#10;M206.728378,135.641785 &#10;&#9;C205.231873,132.482590 203.984573,129.174484 202.199600,126.187698 &#10;&#9;C187.387878,101.403282 169.291153,79.328934 147.379623,60.466278 &#10;&#9;C140.569107,54.603409 133.709412,48.786221 125.519821,44.806137 &#10;&#9;C122.890053,43.528095 120.960449,42.928459 119.860977,46.602928 &#10;&#9;C114.524994,64.435974 107.630363,81.818031 105.024040,100.435081 &#10;&#9;C104.467789,104.408379 105.264702,106.947868 108.147202,109.601715 &#10;&#9;C119.919022,120.439804 132.115463,130.776840 144.521133,140.866928 &#10;&#9;C148.614212,144.196014 152.431366,147.947708 157.083939,150.446793 &#10;&#9;C159.608475,149.096939 159.959732,146.593719 160.967407,144.573807 &#10;&#9;C164.680908,137.130112 168.241272,129.610107 171.938492,122.158142 &#10;&#9;C173.457458,119.096550 175.709167,116.829575 179.468643,117.996056 &#10;&#9;C182.927780,119.069328 184.484238,121.759491 184.167480,125.334061 &#10;&#9;C184.008072,127.133011 183.663345,128.984787 183.010208,130.659714 &#10;&#9;C178.085754,143.287949 173.092743,155.888947 157.990417,159.831116 &#10;&#9;C156.900681,160.115585 155.871628,160.838043 154.954361,161.539825 &#10;&#9;C152.012863,163.790268 149.642487,163.025208 146.995132,160.748199 &#10;&#9;C135.757965,151.083008 124.430573,141.520859 113.031013,132.047562 &#10;&#9;C109.912109,129.455688 107.161278,126.269760 103.290680,124.712440 &#10;&#9;C102.891243,125.186684 102.596741,125.401909 102.496597,125.685699 &#10;&#9;C102.333267,126.148544 102.253517,126.652603 102.213013,127.145386 &#10;&#9;C100.570068,147.130463 105.434402,165.120697 118.584312,180.578568 &#10;&#9;C119.535515,181.696716 120.824562,182.718460 120.634438,184.413147 &#10;&#9;C120.328926,187.136292 111.825829,194.858047 109.237457,195.563416 &#10;&#9;C104.451973,196.867508 100.407791,195.998367 96.764076,192.008698 &#10;&#9;C90.744080,198.910583 86.594917,206.276077 83.915955,214.630707 &#10;&#9;C80.226486,226.136688 84.557137,235.263382 92.307755,243.107010 &#10;&#9;C96.852875,247.706650 102.412163,251.242477 108.117241,254.419525 &#10;&#9;C133.205597,268.390778 160.039413,277.585327 188.004883,283.702148 &#10;&#9;C194.297379,285.078491 200.413544,285.443817 206.577576,282.621735 &#10;&#9;C209.923447,281.089874 214.037125,280.994232 217.327194,282.601990 &#10;&#9;C228.432816,288.028992 240.522339,285.666168 252.085129,287.218903 &#10;&#9;C257.701385,287.973083 263.424347,288.931335 269.152527,289.137573 &#10;&#9;C277.149628,289.425537 284.601746,292.959320 292.702484,292.766724 &#10;&#9;C330.546509,291.866913 367.590881,286.063446 403.621399,274.414490 &#10;&#9;C423.997772,267.826691 443.155548,258.708405 460.617218,246.037552 &#10;&#9;C479.321960,232.464676 474.791870,208.375427 457.812073,192.752563 &#10;&#9;C455.878845,193.609238 454.828156,196.215256 452.490967,196.111649 &#10;&#9;C447.848450,195.905807 443.679382,196.703766 440.883240,200.720459 &#10;&#9;C429.988831,191.053680 429.908997,190.414917 437.770050,179.478058 &#10;&#9;C438.450562,178.531265 439.112946,177.570175 439.751190,176.594437 &#10;&#9;C449.220428,162.117935 451.071259,146.159225 449.378113,129.366074 &#10;&#9;C447.250519,129.493027 446.328735,130.790588 445.217621,131.727737 &#10;&#9;C431.849823,143.002029 418.451843,154.241516 405.186371,165.635178 &#10;&#9;C402.391144,168.035995 400.230927,167.952576 396.744537,166.637680 &#10;&#9;C382.654755,161.323746 373.703613,151.661957 369.549683,137.287048 &#10;&#9;C368.810303,134.728348 367.659637,132.282852 367.742126,129.557739 &#10;&#9;C367.844574,126.170670 369.656555,123.846329 372.774353,122.839409 &#10;&#9;C376.069214,121.775307 378.230347,123.724449 379.667603,126.396721 &#10;&#9;C381.873383,130.497910 383.918762,134.686920 385.971558,138.868439 &#10;&#9;C388.716187,144.459167 391.402832,150.078369 394.000549,155.450012 &#10;&#9;C396.620422,155.118683 397.746002,153.775345 399.004395,152.748367 &#10;&#9;C413.455902,140.954468 427.848114,129.102066 441.717560,116.603821 &#10;&#9;C446.483459,112.309158 447.442017,107.994110 446.444275,102.065231 &#10;&#9;C443.915558,87.038910 438.762512,72.791656 434.193481,58.363956 &#10;&#9;C430.494293,46.683189 429.365448,46.426003 419.185883,53.822941 &#10;&#9;C395.472443,71.054184 375.887451,92.217621 359.400421,116.338272 &#10;&#9;C353.767212,124.579712 348.190582,132.812851 344.830292,142.408112 &#10;&#9;C342.577667,148.840469 336.988892,151.000778 331.669556,148.447495 &#10;&#9;C325.788239,145.624466 324.040192,140.359161 326.906647,134.244125 &#10;&#9;C329.601776,128.494446 332.850250,123.082436 336.550262,117.924110 &#10;&#9;C338.071289,115.803551 339.764557,113.731682 340.665161,109.936729 &#10;&#9;C298.397156,100.348030 256.659943,100.688347 213.890335,110.105309 &#10;&#9;C215.592041,112.881393 216.631622,114.731873 217.817383,116.483391 &#10;&#9;C221.737030,122.273140 225.965851,127.861191 228.821945,134.315430 &#10;&#9;C231.289825,139.892410 229.479172,145.382797 224.108780,148.237213 &#10;&#9;C219.062180,150.919540 214.668503,149.413513 211.209137,143.723038 &#10;&#9;C209.738968,141.304672 208.415787,138.796951 206.728378,135.641785 &#10;M302.646759,82.726242 &#10;&#9;C319.368835,83.502068 335.660645,86.874130 351.841492,90.902084 &#10;&#9;C353.430695,91.297684 355.194763,92.416916 356.510925,90.862411 &#10;&#9;C360.218506,86.483307 363.733490,81.941093 368.027069,76.586975 &#10;&#9;C307.219940,57.723991 247.549957,58.782890 187.055222,76.140930 &#10;&#9;C189.874939,81.845596 193.503708,85.302223 196.607925,89.146133 &#10;&#9;C198.647324,91.671486 201.095047,92.130447 204.184204,91.310112 &#10;&#9;C236.191254,82.810532 268.721893,80.114830 302.646759,82.726242 &#10;M278.474518,516.768188 &#10;&#9;C296.636719,516.304871 314.744232,515.080261 332.211731,509.711761 &#10;&#9;C346.442596,505.337921 360.097565,499.592987 370.918579,488.787292 &#10;&#9;C373.695770,486.014008 376.490814,483.208496 377.486237,478.311279 &#10;&#9;C310.323151,507.076721 243.811600,506.738556 176.966736,477.312744 &#10;&#9;C178.120575,480.490631 179.603760,482.625916 181.275681,484.660370 &#10;&#9;C188.557495,493.521393 198.216568,498.997070 208.404175,503.718018 &#10;&#9;C230.335190,513.880798 253.729889,516.287354 278.474518,516.768188 &#10;M74.422752,296.603424 &#10;&#9;C90.422752,292.666168 107.137993,293.011841 123.279709,288.823364 &#10;&#9;C99.609581,276.615723 76.744141,263.947998 59.547024,243.043457 &#10;&#9;C59.037762,243.849365 58.581429,244.240585 58.557922,244.656296 &#10;&#9;C57.521397,262.989563 59.216209,281.133453 62.526253,299.147003 &#10;&#9;C62.973370,301.580261 64.575989,301.777466 66.638298,300.531250 &#10;&#9;C68.900421,299.164368 71.303833,298.031342 74.422752,296.603424 &#10;M490.858826,189.611954 &#10;&#9;C484.723633,176.964371 475.028961,167.426071 464.339203,158.385330 &#10;&#9;C461.154175,165.986237 461.679443,167.669540 466.761871,172.744965 &#10;&#9;C478.282623,184.249832 488.583160,196.552582 490.922180,213.522583 &#10;&#9;C491.239838,215.827240 491.420898,218.150726 491.710297,220.892563 &#10;&#9;C493.590088,219.067810 494.054535,217.291382 494.713654,215.598190 &#10;&#9;C498.256104,206.497650 494.712372,198.392654 490.858826,189.611954 &#10;M90.498260,169.480240 &#10;&#9;C89.571434,167.043106 89.481178,164.255081 87.263824,161.900208 &#10;&#9;C73.717499,174.026291 62.538342,187.457367 59.456902,206.020157 &#10;&#9;C58.612198,211.108704 60.633995,217.075073 64.243988,221.363022 &#10;&#9;C63.970509,219.299561 64.069862,217.350052 64.262764,215.356247 &#10;&#9;C65.468712,202.891449 71.725426,192.857391 79.106613,183.227295 &#10;&#9;C82.641891,178.614883 87.485359,175.199921 90.498260,169.480240 &#10;z"/>
  <rect x="310.941" y="373.142" width="119.457" height="45.675" style="fill: rgb(255, 255, 255);"/>
  <path fill="#000000" opacity="1.000000" stroke="none" d="&#10;M303.649231,413.065369 &#10;&#9;C302.175873,394.399445 299.769958,376.336243 296.636505,358.077515 &#10;&#9;C300.054993,358.381592 302.101196,361.879456 305.169525,362.375214 &#10;&#9;C310.250183,363.196075 315.062866,364.089447 320.625305,361.792603 &#10;&#9;C327.576447,358.922302 335.642700,359.640778 343.307281,359.599030 &#10;&#9;C365.448303,359.478394 387.568848,357.969635 409.463898,355.163635 &#10;&#9;C419.226837,353.912445 429.368866,351.435181 438.520782,346.767578 &#10;&#9;C441.571106,345.211884 444.576111,344.221313 445.592499,349.184540 &#10;&#9;C445.973145,351.043304 448.652130,350.399902 449.515869,352.412048 &#10;&#9;C448.581451,356.578766 445.049438,359.835083 444.176117,364.350494 &#10;&#9;C441.379547,378.809296 440.800262,393.373138 441.778687,408.011139 &#10;&#9;C442.189789,414.160858 442.436371,420.240540 440.834564,426.380554 &#10;&#9;C438.502045,426.380554 436.372803,426.401581 434.244202,426.373932 &#10;&#9;C432.519958,426.351532 430.198883,426.553864 429.641998,427.796143 &#10;&#9;C427.176392,433.296265 422.779114,431.307983 418.611053,431.509247 &#10;&#9;C412.313507,431.813324 406.153534,430.775085 399.596313,433.202423 &#10;&#9;C394.516235,435.082947 387.847412,432.803101 381.903412,432.192139 &#10;&#9;C368.142731,430.777740 354.414581,431.450775 340.669189,432.462982 &#10;&#9;C329.557861,433.281189 318.428284,433.856354 307.303955,434.489624 &#10;&#9;C304.604156,434.643311 301.678040,430.407440 302.720734,426.914581 &#10;&#9;C304.055298,422.444244 303.376556,417.996429 303.649231,413.065369 &#10;M415.979095,377.668152 &#10;&#9;C408.498627,378.811859 402.676605,382.649811 398.278931,388.704437 &#10;&#9;C397.236786,390.139221 395.851318,391.663574 396.853119,393.667664 &#10;&#9;C397.830170,395.622253 399.754700,395.655579 401.619629,395.658600 &#10;&#9;C406.605988,395.666718 411.587799,395.612457 416.515350,396.653046 &#10;&#9;C418.779663,397.131226 421.607819,397.009003 422.292175,399.671936 &#10;&#9;C423.075287,402.719116 421.321838,405.194611 418.796417,406.828613 &#10;&#9;C416.565674,408.271912 414.101257,409.100433 411.345856,409.390411 &#10;&#9;C405.374237,410.018799 400.367584,408.586609 396.559052,402.183685 &#10;&#9;C396.783051,409.743835 400.763428,413.925720 406.035217,413.451019 &#10;&#9;C413.320709,412.795013 419.405243,409.578186 424.226074,404.166016 &#10;&#9;C426.561676,401.543884 428.989899,398.255463 427.320587,394.743744 &#10;&#9;C425.917267,391.791748 422.191498,392.377838 419.240051,392.276276 &#10;&#9;C418.740997,392.259125 418.239136,392.271851 417.743225,392.223297 &#10;&#9;C412.616211,391.721008 407.490143,391.208984 402.040619,390.667603 &#10;&#9;C406.363861,383.112061 411.564728,381.261047 418.610352,384.112335 &#10;&#9;C421.093292,385.117188 422.418365,384.705475 422.067932,381.577698 &#10;&#9;C421.692078,378.223022 420.083160,376.820435 415.979095,377.668152 &#10;M365.282104,387.912140 &#10;&#9;C369.899567,383.709412 374.654388,380.339691 381.186920,384.319458 &#10;&#9;C382.593628,385.176483 383.725250,384.354279 384.049011,382.689087 &#10;&#9;C384.700928,379.336182 382.749451,377.073730 379.371948,377.431702 &#10;&#9;C371.072876,378.311401 364.695770,382.497345 359.940369,389.188873 &#10;&#9;C357.211304,393.029053 358.446716,395.424652 363.227356,395.616089 &#10;&#9;C368.370819,395.822021 373.530090,395.576385 378.622070,396.657318 &#10;&#9;C380.882355,397.137115 383.694214,397.020660 384.356750,399.717010 &#10;&#9;C385.052155,402.547211 383.414734,404.913452 381.122925,406.543243 &#10;&#9;C378.948730,408.089264 376.540955,409.117737 373.770325,409.347107 &#10;&#9;C367.986267,409.826019 362.625763,409.292938 359.082336,403.285248 &#10;&#9;C358.885498,409.493103 362.160095,413.496948 367.047607,413.412384 &#10;&#9;C375.921783,413.258850 384.928253,407.934998 388.652466,400.403503 &#10;&#9;C391.143951,395.364990 389.763367,392.900360 384.164673,392.399506 &#10;&#9;C378.712646,391.911774 373.235718,391.708313 367.775482,391.302490 &#10;&#9;C366.134430,391.180511 363.658295,391.695984 365.282104,387.912140 &#10;M350.634583,384.976471 &#10;&#9;C350.131683,382.232147 351.034515,378.131256 346.523865,378.454498 &#10;&#9;C332.907684,379.430145 321.951141,390.419678 323.397644,403.866821 &#10;&#9;C324.007080,409.532104 327.695740,412.642303 333.461426,412.782440 &#10;&#9;C340.423615,412.951721 345.717468,409.102753 351.148193,405.585022 &#10;&#9;C351.872620,405.115753 352.954620,404.471069 351.805328,402.895813 &#10;&#9;C346.888550,405.034607 342.181824,407.977844 336.709900,408.816315 &#10;&#9;C333.161377,409.360107 330.124237,408.414856 327.819916,405.591492 &#10;&#9;C325.589355,402.858459 325.527924,399.927582 326.901825,396.719788 &#10;&#9;C329.648987,390.305786 334.457397,386.339722 341.014984,384.329773 &#10;&#9;C343.473053,383.576385 345.805542,382.916534 347.360199,386.081024 &#10;&#9;C348.438904,388.276764 349.642792,387.256927 350.634583,384.976471 &#10;z"/>
  <path fill="#000000" opacity="1.000000" stroke="none" d="&#10;M133.493179,329.941711 &#10;&#9;C136.685394,336.638275 139.455353,343.213806 142.461853,349.679352 &#10;&#9;C144.002579,352.992706 146.002243,356.090210 147.724152,359.322723 &#10;&#9;C148.646133,361.053528 149.049179,362.885071 147.050446,364.175323 &#10;&#9;C144.940674,365.537292 143.425034,364.318756 142.647461,362.500854 &#10;&#9;C141.543991,359.921021 139.811859,359.501984 137.452988,360.333435 &#10;&#9;C131.637253,362.383362 124.639969,360.833679 119.875618,366.171600 &#10;&#9;C119.172295,366.959564 117.693901,366.826660 117.154915,365.999603 &#10;&#9;C115.521782,363.493561 113.412926,364.122864 111.036415,365.125061 &#10;&#9;C107.559708,358.434143 107.073235,350.930328 103.402061,343.245331 &#10;&#9;C101.179489,350.614929 99.313156,356.793945 97.453972,362.975067 &#10;&#9;C97.028625,364.389221 96.892700,366.216583 94.975906,366.253082 &#10;&#9;C92.808792,366.294403 92.440865,364.296021 92.067131,362.740082 &#10;&#9;C90.666100,356.907227 88.859306,351.219452 86.325386,345.067841 &#10;&#9;C83.423309,351.034943 82.097939,356.979919 80.076950,362.668060 &#10;&#9;C79.526207,364.218170 79.405052,366.902771 76.780373,366.052734 &#10;&#9;C74.887199,365.439636 74.118073,363.221161 74.885002,361.415466 &#10;&#9;C78.870857,352.030853 81.125221,342.107025 84.204941,332.442657 &#10;&#9;C84.398064,331.836609 84.913010,331.333069 85.751709,330.067108 &#10;&#9;C90.966148,337.002502 89.955048,345.686707 95.061546,352.171448 &#10;&#9;C97.583084,347.688507 98.344482,342.951202 99.591042,338.393311 &#10;&#9;C100.204903,336.148804 100.611610,333.847534 101.229095,331.604156 &#10;&#9;C101.572060,330.358124 101.811707,328.763428 103.484993,328.661224 &#10;&#9;C105.455902,328.540833 105.831047,330.251984 106.215759,331.674286 &#10;&#9;C107.952507,338.095032 109.501480,344.569519 111.376945,350.948547 &#10;&#9;C112.344498,354.239532 113.852951,357.371460 115.330132,361.115448 &#10;&#9;C121.778931,352.711578 124.290588,343.306366 127.845444,334.392700 &#10;&#9;C128.821838,331.944427 129.391891,329.004761 133.493179,329.941711 &#10;M127.573074,349.001282 &#10;&#9;C127.003883,351.324280 125.180336,353.343323 125.819771,356.233124 &#10;&#9;C129.595230,356.782837 132.917725,355.336151 136.247177,354.095978 &#10;&#9;C137.471848,353.639862 138.025833,352.397186 137.522507,351.225586 &#10;&#9;C135.901566,347.452637 135.273270,343.130798 131.625107,339.691498 &#10;&#9;C130.227127,342.902069 129.050919,345.603363 127.573074,349.001282 &#10;z"/>
  <path fill="#000000" opacity="1.000000" stroke="none" d="&#10;M240.446213,343.578430 &#10;&#9;C238.006577,349.197662 237.713715,354.696564 239.098572,360.414246 &#10;&#9;C239.556320,362.304169 238.479111,363.696808 236.569351,364.061127 &#10;&#9;C234.348648,364.484711 233.573303,362.896667 233.403839,361.128296 &#10;&#9;C233.150696,358.486359 232.962265,355.812195 233.080246,353.166626 &#10;&#9;C233.279984,348.687866 231.082703,347.604279 227.174271,348.562195 &#10;&#9;C226.366364,348.760193 225.564194,348.981506 224.757004,349.182587 &#10;&#9;C218.187393,350.819305 217.775208,351.362732 218.394089,358.032898 &#10;&#9;C218.531815,359.517334 218.943069,360.975067 219.111038,362.458374 &#10;&#9;C219.336243,364.447083 218.307739,365.718750 216.414566,365.991943 &#10;&#9;C214.491135,366.269501 213.788437,364.938904 213.673965,363.244385 &#10;&#9;C213.069107,354.291046 212.404724,345.340668 211.928986,336.380371 &#10;&#9;C211.796906,333.892426 212.646133,331.481171 215.782761,331.711090 &#10;&#9;C219.179703,331.960083 217.855011,334.792938 218.146088,336.748169 &#10;&#9;C218.530609,339.330994 216.175659,343.302551 221.175125,343.708649 &#10;&#9;C228.783218,344.326599 232.463303,341.906738 232.660828,336.506409 &#10;&#9;C232.697296,335.509644 232.635193,334.492706 232.813705,333.520966 &#10;&#9;C233.258423,331.100006 234.582474,329.401367 237.242401,329.921631 &#10;&#9;C239.859207,330.433472 239.133621,332.675049 238.936676,334.402679 &#10;&#9;C238.584518,337.491791 237.318497,340.668976 240.446213,343.578430 &#10;z"/>
  <path fill="#000000" opacity="1.000000" stroke="none" d="&#10;M267.128082,344.909241 &#10;&#9;C269.594238,349.668091 271.864349,354.107513 274.248718,358.484711 &#10;&#9;C275.317627,360.446991 276.740387,362.417358 274.064270,364.046173 &#10;&#9;C271.762299,365.447235 270.270264,364.024506 269.365173,361.988251 &#10;&#9;C268.390747,359.796021 266.726624,359.642761 264.827789,360.288544 &#10;&#9;C258.839294,362.325378 251.775772,360.808838 246.695770,366.041351 &#10;&#9;C245.440201,367.334564 243.885849,366.046692 243.129288,364.568207 &#10;&#9;C242.290909,362.929749 242.618423,361.314667 243.595901,359.842621 &#10;&#9;C248.903870,351.849213 251.637466,342.723358 255.060822,333.899139 &#10;&#9;C255.832977,331.908783 256.362823,329.528656 259.218964,329.663879 &#10;&#9;C261.823517,329.787170 262.040771,332.093933 262.755035,333.903687 &#10;&#9;C264.158234,337.459106 265.570221,341.011078 267.128082,344.909241 &#10;M263.954773,353.592377 &#10;&#9;C265.001526,348.607666 262.191162,345.074829 259.985931,341.346954 &#10;&#9;C256.853973,342.103394 256.309174,344.418060 255.722214,346.348053 &#10;&#9;C254.769608,349.480225 251.044891,353.112854 253.743988,355.679565 &#10;&#9;C256.159882,357.976898 260.159851,355.058319 263.954773,353.592377 &#10;z"/>
  <path fill="#000000" opacity="1.000000" stroke="none" d="&#10;M200.911316,329.664886 &#10;&#9;C204.777435,330.714935 207.213303,336.416290 205.173798,338.953125 &#10;&#9;C203.664215,340.830811 201.653061,341.273285 200.432159,338.736694 &#10;&#9;C199.215561,336.209076 197.612427,336.544556 195.531952,337.213348 &#10;&#9;C189.375214,339.192413 184.520035,342.672638 182.041046,348.832947 &#10;&#9;C179.511719,355.118408 182.880890,359.954529 189.629837,359.767029 &#10;&#9;C193.900787,359.648376 197.580734,357.687012 201.342316,355.880066 &#10;&#9;C203.179977,354.997314 205.686966,352.119141 207.292267,355.010040 &#10;&#9;C208.807739,357.739136 205.186508,358.620667 203.464905,359.862122 &#10;&#9;C199.393631,362.797974 194.964462,365.020416 189.900803,365.805206 &#10;&#9;C182.707214,366.920044 177.572479,363.131958 176.555649,355.843719 &#10;&#9;C174.707062,342.593658 185.688278,330.568939 200.911316,329.664886 &#10;z"/>
  <path fill="#000000" opacity="1.000000" stroke="none" d="&#10;M163.691437,357.379333 &#10;&#9;C163.915314,360.717651 166.207626,365.230316 161.530121,365.469452 &#10;&#9;C157.362549,365.682526 158.806381,360.973053 158.721039,358.284393 &#10;&#9;C158.512207,351.706268 158.652847,345.117065 158.652847,339.164886 &#10;&#9;C155.592178,337.712646 154.138870,338.953369 152.553925,339.190826 &#10;&#9;C150.764023,339.459015 149.214127,339.240112 148.451950,337.308624 &#10;&#9;C147.670029,335.327118 148.109146,333.528961 149.957825,332.578583 &#10;&#9;C156.910568,329.004425 164.324677,329.021362 171.791275,330.300659 &#10;&#9;C173.233276,330.547760 174.638367,331.669769 174.589798,333.405640 &#10;&#9;C174.533005,335.435791 172.674805,335.398468 171.271561,335.696411 &#10;&#9;C170.305008,335.901611 169.289474,335.995514 168.301956,335.961487 &#10;&#9;C164.404144,335.827118 163.046661,337.808167 163.221024,341.509369 &#10;&#9;C163.462997,346.646332 163.474518,351.794098 163.691437,357.379333 &#10;z"/>
  <path fill="#000000" opacity="1.000000" stroke="none" d="&#10;M288.811157,325.720428 &#10;&#9;C292.176025,325.960999 292.896851,327.399750 291.698639,330.103668 &#10;&#9;C288.810669,336.620605 285.164307,342.845154 284.004883,350.040619 &#10;&#9;C283.808990,351.256500 283.009705,352.209015 281.588287,352.081604 &#10;&#9;C279.728088,351.914856 279.555054,350.436340 279.809448,349.125427 &#10;&#9;C281.104187,342.454010 281.840027,335.657349 284.001984,329.175873 &#10;&#9;C284.678650,327.147186 286.132660,325.828430 288.811157,325.720428 &#10;z"/>
  <path fill="#000000" opacity="1.000000" stroke="none" d="&#10;M283.037445,359.894897 &#10;&#9;C282.239929,362.070587 282.085419,364.531799 279.282135,364.124969 &#10;&#9;C277.089417,363.806793 277.115356,361.891632 277.201996,360.223938 &#10;&#9;C277.305206,358.237823 278.031891,356.653992 280.371338,356.500671 &#10;&#9;C282.543243,356.358337 283.434601,357.377075 283.037445,359.894897 &#10;z"/>
  <path fill="#000000" opacity="1.000000" stroke="none" d="&#10;M292.212555,260.209229 &#10;&#9;C285.957855,258.600677 281.913269,254.287552 277.158600,249.995407 &#10;&#9;C272.239655,255.904480 266.401917,259.707764 259.004913,260.925171 &#10;&#9;C249.646057,262.465454 238.337677,255.919662 235.502945,247.067032 &#10;&#9;C233.928879,242.151398 235.340607,237.174545 238.910355,235.054749 &#10;&#9;C242.716690,232.794434 246.133682,233.736191 250.225052,238.173126 &#10;&#9;C254.889648,243.231705 260.357941,242.904831 264.295654,237.148727 &#10;&#9;C265.688660,235.112442 266.752991,232.808960 267.695190,230.515625 &#10;&#9;C269.509308,226.099930 272.422546,223.366364 277.423706,223.314758 &#10;&#9;C282.535461,223.262009 285.846130,225.885651 288.001831,230.292938 &#10;&#9;C289.168823,232.678802 290.074707,235.250565 291.580139,237.401245 &#10;&#9;C295.349548,242.786346 300.364868,243.070206 305.025146,238.432755 &#10;&#9;C310.102386,233.380417 312.641388,232.707474 316.516785,235.387146 &#10;&#9;C320.522278,238.156769 321.519531,243.565323 319.005798,248.886200 &#10;&#9;C314.781952,257.826843 305.472656,261.845001 292.212555,260.209229 &#10;z"/>
  <path fill="#000000" opacity="1.000000" stroke="none" d="&#10;M342.088470,202.524323 &#10;&#9;C353.355469,200.122314 360.716156,204.076050 363.547150,213.694366 &#10;&#9;C365.217712,219.370117 363.115662,225.569229 358.302277,229.162003 &#10;&#9;C351.746185,234.055527 344.736450,234.592163 338.835632,230.652283 &#10;&#9;C333.836182,227.314209 330.857117,220.114853 332.124176,214.560043 &#10;&#9;C333.386292,209.026932 336.308258,204.861069 342.088470,202.524323 &#10;z"/>
  <path fill="#000000" opacity="1.000000" stroke="none" d="&#10;M223.370193,217.845093 &#10;&#9;C221.740036,227.103256 215.832855,232.798126 207.826752,233.250244 &#10;&#9;C200.842300,233.644653 193.857132,228.728287 191.945892,221.925430 &#10;&#9;C190.156723,215.557007 191.710999,210.022079 196.682068,205.643982 &#10;&#9;C201.809769,201.127930 207.735748,200.443069 213.937485,202.949509 &#10;&#9;C220.343277,205.538391 223.398514,210.524612 223.370193,217.845093 &#10;z"/>
  <path style="fill: none; stroke: rgb(255, 255, 255); stroke-width: 10px;" d="M 293.959 363.233 L 298.558 382.613 L 300.282 407.203 L 298.558 428.364 L 302.582 435.799 L 339.944 433.511 L 377.307 432.938 L 397.426 435.226 L 412.37 430.651 L 428.465 431.795 L 433.638 427.221 L 443.41 426.649 L 442.261 384.328 L 442.261 369.459 L 450.309 352.304 L 450.309 344.298 L 443.985 346.013 L 443.41 338.007 L 424.441 348.3 C 424.441 348.3 412.945 355.735 412.37 355.735 C 411.797 355.735 364.086 360.311 364.086 360.311 L 332.472 360.882 L 314.078 366.602 L 296.259 359.738"/>
  <ellipse style="fill: rgb(252, 176, 214);" cx="370.962" cy="255.734" rx="30.157" ry="12.59"/>
  <ellipse style="fill: rgb(252, 176, 214);" cx="187.97" cy="255.441" rx="30.157" ry="12.59"/>
</svg>